<mxfile host="app.diagrams.net" modified="2023-10-20T06:01:43.856Z" agent="Mozilla/5.0 (Windows NT 10.0; Win64; x64) AppleWebKit/537.36 (KHTML, like Gecko) Chrome/118.0.0.0 Safari/537.36 Edg/118.0.2088.57" version="22.0.5" etag="9U8iuflv5i3j6JnlGGaC" type="github">
  <diagram name="第 1 页" id="VBWUr_pNgD8a5ou0Mfkq">
    <mxGraphModel>
      <root>
        <mxCell id="0" />
        <mxCell id="1" parent="0" />
      </root>
    </mxGraphModel>
  </diagram>
</mxfile>
